HIERARCHY
ROOT Hips
{
	OFFSET 0.00000 0.00000 0.00000
	CHANNELS 6 Xposition Yposition Zposition Zrotation Yrotation Xrotation 
	JOINT LHipJoint
	{
		OFFSET 0 0 0
		CHANNELS 3 Zrotation Yrotation Xrotation
		JOINT LeftUpLeg
		{
			OFFSET 1.86795 -1.59681 0.65681
			CHANNELS 3 Zrotation Yrotation Xrotation
			JOINT LeftLeg
			{
				OFFSET 2.30491 -6.33268 0.00000
				CHANNELS 3 Zrotation Yrotation Xrotation
				JOINT LeftFoot
				{
					OFFSET 2.46780 -6.78022 0.00000
					CHANNELS 3 Zrotation Yrotation Xrotation
					JOINT LeftToeBase
					{
						OFFSET 0.07897 -0.21698 1.59652
						CHANNELS 3 Zrotation Yrotation Xrotation
						End Site
						{
							OFFSET 0.00000 -0.00000 0.82310
						}
					}
				}
			}
		}
	}
	JOINT RHipJoint
	{
		OFFSET 0 0 0
		CHANNELS 3 Zrotation Yrotation Xrotation
		JOINT RightUpLeg
		{
			OFFSET -1.93650 -1.59681 0.65681
			CHANNELS 3 Zrotation Yrotation Xrotation
			JOINT RightLeg
			{
				OFFSET -2.29410 -6.30299 0.00000
				CHANNELS 3 Zrotation Yrotation Xrotation
				JOINT RightFoot
				{
					OFFSET -2.48738 -6.83403 0.00000
					CHANNELS 3 Zrotation Yrotation Xrotation
					JOINT RightToeBase
					{
						OFFSET -0.08699 -0.23899 1.89395
						CHANNELS 3 Zrotation Yrotation Xrotation
						End Site
						{
							OFFSET -0.00000 -0.00000 0.96904
						}
					}
				}
			}
		}
	}
	JOINT LowerBack
	{
		OFFSET 0 0 0
		CHANNELS 3 Zrotation Yrotation Xrotation
		JOINT Spine
		{
			OFFSET 0.03629 1.99740 -0.07548
			CHANNELS 3 Zrotation Yrotation Xrotation
			JOINT Spine1
			{
				OFFSET 0.03970 1.94298 0.17218
				CHANNELS 3 Zrotation Yrotation Xrotation
				JOINT Neck
				{
					OFFSET 0 0 0
					CHANNELS 3 Zrotation Yrotation Xrotation
					JOINT Neck1
					{
						OFFSET -0.05054 1.79469 0.04241
						CHANNELS 3 Zrotation Yrotation Xrotation
						JOINT Head
						{
							OFFSET 0.05195 1.78475 -0.22133
							CHANNELS 3 Zrotation Yrotation Xrotation
							End Site
							{
								OFFSET 0.02420 1.80711 -0.07950
							}
						}
					}
				}
				JOINT LeftShoulder
				{
					OFFSET 0 0 0
					CHANNELS 3 Zrotation Yrotation Xrotation
					JOINT LeftArm
					{
						OFFSET 2.92134 1.19850 0.36056
						CHANNELS 3 Zrotation Yrotation Xrotation
						JOINT LeftForeArm
						{
							OFFSET 4.84137 -0.00000 0.00000
							CHANNELS 3 Zrotation Yrotation Xrotation
							JOINT LeftHand
							{
								OFFSET 3.24520 -0.00000 -0.00000
								CHANNELS 3 Zrotation Yrotation Xrotation
								JOINT LeftFingerBase
								{
									OFFSET 0 0 0
									CHANNELS 3 Zrotation Yrotation Xrotation
									JOINT LeftHandIndex1
									{
										OFFSET 0.52122 -0.00000 0.00000
										CHANNELS 3 Zrotation Yrotation Xrotation
										End Site
										{
											OFFSET 0.42022 -0.00000 0.00000
										}
									}
								}
								JOINT LThumb
								{
									OFFSET 0 0 0
									CHANNELS 3 Zrotation Yrotation Xrotation
									End Site
									{
										OFFSET 0.42664 -0.00000 0.42664
									}
								}
							}
						}
					}
				}
				JOINT RightShoulder
				{
					OFFSET 0 0 0
					CHANNELS 3 Zrotation Yrotation Xrotation
					JOINT RightArm
					{
						OFFSET -2.84327 1.20795 0.50191
						CHANNELS 3 Zrotation Yrotation Xrotation
						JOINT RightForeArm
						{
							OFFSET -4.72284 -0.00000 0.00000
							CHANNELS 3 Zrotation Yrotation Xrotation
							JOINT RightHand
							{
								OFFSET -3.23459 -0.00000 0.00000
								CHANNELS 3 Zrotation Yrotation Xrotation
								JOINT RightFingerBase
								{
									OFFSET 0 0 0
									CHANNELS 3 Zrotation Yrotation Xrotation
									JOINT RightHandIndex1
									{
										OFFSET -0.30742 -0.00000 0.00000
										CHANNELS 3 Zrotation Yrotation Xrotation
										End Site
										{
											OFFSET -0.24785 -0.00000 0.00000
										}
									}
								}
								JOINT RThumb
								{
									OFFSET 0 0 0
									CHANNELS 3 Zrotation Yrotation Xrotation
									End Site
									{
										OFFSET -0.25163 -0.00000 0.25163
									}
								}
							}
						}
					}
				}
			}
		}
	}
}
MOTION
Frames: 10
Frame Time: 0.0138889
0.00 0.00 0.00 -89.4672 85.1514 -72.6853 0.0000 0.0000 0.0000 3.6008 2.2585 -71.5192 16.7015 19.7371 80.3150 -0.2224 9.4001 -8.0975 2.7336 10.2507 29.7926 0.0000 0.0000 0.0000 32.7509 4.6905 -62.5992 -14.9522 -19.3778 75.0926 -0.3989 -21.7689 -33.2603 -0.8994 -6.0440 16.9121 -9.0126 -2.4688 27.7804 -3.1834 -6.3770 0.1115 3.7627 -2.2541 -14.0178 -4.0719 -0.4715 -11.3741 13.9467 1.6474 -13.6197 4.9841 1.0965 -2.2593 0.0000 -0.0000 0.0000 -12.6914 -19.8904 -3.8600 21.4812 -32.3857 -6.3057 -0.0000 -0.0000 32.6691 -13.3578 46.6464 -9.7962 -7.1250 0.0000 -0.0000 -67.4074 64.4336 -39.4895 0.0000 -0.0000 0.0000 -7.1317 1.2701 11.0645 -12.7706 20.9501 -2.3706 0.0000 -0.0000 -5.7470 1.5340 11.4723 0.3052 7.1250 -0.0000 -0.0000 19.8459 -18.8185 13.1960
0.00 0.00 0.00 -147.3990 78.4570 -129.3620 0.0000 0.0000 0.0000 -10.3987 6.6502 -80.5746 14.8638 19.3554 74.8261 -0.6113 20.9117 -24.5716 6.0352 14.4624 45.1228 0.0000 0.0000 0.0000 34.8605 -0.2232 -64.1817 -14.8149 -19.3428 74.6786 -0.7253 -21.0169 -34.2876 -0.9136 -6.0904 17.0469 -7.2071 -2.1621 25.7708 -3.3380 -5.2464 0.2594 2.1797 -1.9189 -13.8613 -2.1079 3.3768 -12.6953 8.9804 6.3337 -12.9315 3.4475 3.5514 -2.4456 0.0000 0.0000 0.0000 -16.3142 -24.9258 -4.2161 23.4289 -34.5544 -7.3801 -0.0000 -0.0000 34.8363 -17.8856 43.9451 -12.6233 -7.1250 0.0000 -0.0000 -66.4182 61.8107 -34.9492 0.0000 0.0000 0.0000 -6.6302 1.9138 10.2554 -13.3723 21.8302 -2.5901 0.0000 -0.0000 -6.1990 6.8088 6.5685 0.7825 7.1250 -0.0000 -0.0000 24.1210 -23.3338 13.8231
0.00 0.00 0.00 -164.9610 52.5890 -150.0300 0.0000 0.0000 0.0000 -17.8984 0.0046 -74.5659 13.0368 18.7954 69.2398 1.5976 13.3953 -31.9590 4.7178 13.0588 39.5889 0.0000 0.0000 0.0000 33.0638 -11.0329 -61.4017 -17.5700 -19.8578 82.8789 1.5822 -25.5319 -24.4958 -1.2334 -7.0429 19.8426 -5.7266 -0.5301 22.5846 -2.5089 -2.3304 0.0708 1.1913 -0.7295 -12.5229 0.5867 8.7160 -12.4530 2.3352 12.7212 -11.4329 0.8795 6.7492 -1.7308 0.0000 0.0000 0.0000 -15.7404 -31.9176 1.5226 21.5139 -32.4233 -6.3232 -0.0000 -0.0000 36.0998 -32.4395 40.3392 -22.3634 -7.1250 0.0000 -0.0000 -72.4138 56.3311 -30.6512 0.0000 0.0000 0.0000 -4.9526 6.1625 7.2177 -12.5344 20.6012 -2.2869 0.0000 -0.0000 -4.0153 21.4732 -1.9615 -0.7714 7.1250 -0.0000 -0.0000 35.8701 -29.9449 16.2638
0.00 0.00 0.00 -168.4800 39.9416 -156.0900 0.0000 0.0000 0.0000 -17.5463 -5.9520 -67.3507 12.8545 18.7290 68.6730 1.3073 11.1799 -28.2505 2.7632 10.3015 29.9587 0.0000 0.0000 0.0000 27.4470 -11.1258 -58.2792 -20.2578 -19.9984 90.7539 2.4829 -27.1323 -4.6188 -1.6782 -8.1610 23.2042 -5.9944 -0.1026 23.0807 -2.0308 -1.8172 -0.0778 1.7217 -0.4378 -12.9789 0.5401 7.7687 -11.9567 3.9895 11.4563 -9.4292 1.4100 6.1093 -1.2419 0.0000 -0.0000 0.0000 -19.7042 -36.0539 6.2832 21.8154 -32.7678 -6.4856 -0.0000 -0.0000 34.9351 -33.9027 39.7098 -23.2370 -7.1250 0.0000 -0.0000 -72.6501 55.6925 -29.6230 0.0000 -0.0000 0.0000 -4.1610 7.3069 7.9072 -12.4246 20.4384 -2.2484 0.0000 -0.0000 -4.4342 26.6895 -3.4321 -1.7238 7.1250 -0.0000 -0.0000 39.4058 -30.5161 18.1394
0.00 0.00 0.00 -173.9060 -45.3428 -169.3100 0.0000 0.0000 0.0000 -13.0128 -28.4180 -43.0612 12.9451 18.7623 68.9549 -2.2731 -29.0985 -4.0818 6.1084 14.5325 45.4151 0.0000 0.0000 0.0000 -7.0136 28.9419 -58.9522 -7.5407 -15.7708 50.8908 0.1729 -8.1416 0.7556 -0.1306 2.3296 -6.4174 -4.6443 1.3623 23.3870 -0.4063 0.2839 0.8078 2.1317 0.2992 -12.2749 -2.8929 1.1758 -11.6517 12.5563 1.4860 -8.4016 4.3294 0.4479 -0.6785 -0.0000 -0.0000 0.0000 -77.8475 -56.7212 46.8273 27.5746 -38.7216 -9.8564 -0.0000 -0.0000 58.5675 -52.4148 37.9642 -38.6332 -7.1250 0.0000 -0.0000 -82.0752 51.2376 -27.6510 -0.0000 -0.0000 0.0000 -4.9778 26.5233 1.8023 -12.8127 21.0122 -2.3857 0.0000 -0.0000 -8.0080 52.2047 -7.4787 -9.5269 7.1250 -0.0000 -0.0000 46.4878 -22.8363 41.7380
0.00 0.00 0.00 -174.3880 -73.1686 -171.1740 0.0000 0.0000 0.0000 -7.6540 -31.6851 -34.9943 11.4291 18.1387 64.1674 -3.2336 -29.8869 12.1735 7.7971 15.9680 51.8287 0.0000 0.0000 0.0000 -12.3720 28.2950 -52.6023 -4.8077 -13.1640 39.9853 -0.5010 -0.3166 13.2664 -1.8479 8.5419 -24.3725 -3.7536 2.2145 23.0690 -1.3099 1.5943 0.5315 0.1590 0.8455 -12.4526 -4.1157 -3.4833 -10.1583 15.0528 -4.2660 -9.1180 5.1289 -2.3696 -0.5474 0.0000 0.0000 0.0000 -71.8819 -54.0165 58.4959 34.7024 -44.5985 -14.6040 -0.0000 -0.0000 59.9009 -46.1854 33.6817 -30.0285 -7.1250 0.0000 -0.0000 -72.8281 50.2434 -17.5802 0.0000 0.0000 0.0000 -9.9669 39.5027 -12.3054 -12.9212 21.1716 -2.4247 0.0000 -0.0000 -9.9208 41.5745 -7.8294 -6.8900 7.1250 -0.0000 -0.0000 47.1940 -30.5645 25.8118
0.00 0.00 0.00 -190.8070 -84.2787 -155.5570 0.0000 0.0000 0.0000 -5.8611 -33.2002 -30.9858 10.7838 17.8277 62.0776 -2.2184 -26.4996 19.1882 9.5075 17.1235 57.8293 0.0000 0.0000 0.0000 -3.5867 19.0639 -51.4231 -8.0023 -16.1210 52.5711 0.2912 -9.6841 -1.6324 -0.9659 6.2573 -17.5329 -3.3452 2.4123 21.3391 -2.1062 1.9785 0.1919 -1.0437 0.9879 -11.8412 -5.8694 -5.7934 -9.4552 16.0856 -7.1020 -8.9979 5.6193 -3.7039 -0.2296 -0.0000 -0.0000 0.0000 -71.2427 -51.6260 57.6832 34.0796 -44.1436 -14.1684 -0.0000 -0.0000 60.0510 -51.4620 35.7316 -36.2480 -7.1250 0.0000 -0.0000 -78.3145 50.4302 -22.0265 -0.0000 -0.0000 0.0000 -13.2865 43.7657 -17.9951 -12.7215 20.8777 -2.3531 0.0000 -0.0000 -9.6395 43.7626 -4.6984 -4.4855 7.1250 -0.0000 -0.0000 45.8306 -26.4242 32.3287
0.00 0.00 0.00 -289.3920 -84.6410 -59.0851 0.0000 0.0000 0.0000 -8.1324 -26.1828 -35.2242 15.7407 19.5594 77.4581 0.5509 -7.0240 18.3161 4.2410 12.4744 37.4317 0.0000 0.0000 0.0000 6.5194 8.9726 -46.5402 -9.9156 -17.3621 59.2059 0.2231 -14.3666 -17.6929 -0.5276 4.6546 -12.9259 -1.8366 2.1359 17.1201 -4.2821 1.9208 -0.1050 -4.0989 0.8370 -9.6661 -6.7049 -5.8379 -9.5432 13.5899 -7.4682 -2.5307 4.8450 -3.5375 1.6137 0.0000 0.0000 0.0000 -82.9067 -43.4281 57.0098 34.2714 -44.2848 -14.3022 -0.0000 -0.0000 62.7706 -59.2720 36.5988 -45.0861 -7.1250 0.0000 -0.0000 -83.3962 49.6931 -24.3688 0.0000 0.0000 0.0000 -26.7927 58.5010 -40.0384 -12.0451 19.8722 -2.1176 0.0000 -0.0000 -0.9385 45.8741 -5.1352 -5.2723 7.1250 -0.0000 -0.0000 46.1293 -25.5764 34.6800
0.00 0.00 0.00 -344.9850 -80.0703 -2.9953 0.0000 0.0000 0.0000 -7.0892 -19.8392 -59.3545 19.9154 19.9998 89.7528 -0.2352 -11.1241 11.6490 3.8953 12.0198 35.8021 0.0000 0.0000 0.0000 13.4091 10.3261 -44.1153 -10.6904 -17.7802 61.7721 -0.2142 -16.9702 -25.9126 -0.0061 0.5064 -1.3915 0.0226 -1.3815 19.7828 -1.2083 -2.0108 -1.2471 -0.7512 -0.9976 -12.6044 -9.1926 -3.7739 -11.6749 13.4667 -4.3662 -1.2133 5.3762 -1.8703 2.0766 0.0000 -0.0000 0.0000 -100.9614 -45.4019 68.9368 38.6278 -47.2356 -17.4250 -0.0000 -0.0000 60.8551 -59.9110 34.6817 -44.4808 -7.1250 0.0000 -0.0000 -80.2994 48.8024 -18.5943 0.0000 -0.0000 0.0000 -51.5817 62.6398 -71.7293 -18.1447 28.3421 -4.6177 0.0000 0.0000 6.0949 55.7883 -4.3084 -6.3053 7.1250 -0.0000 -0.0000 44.0840 -13.4991 53.9808
0.00 0.00 0.00 -348.2430 -76.1976 1.3683 0.0000 0.0000 0.0000 -2.2345 -24.0858 -69.0012 14.5792 19.2804 73.9659 -0.0943 -8.2220 9.5641 3.1243 10.8936 31.9218 0.0000 0.0000 0.0000 15.7727 9.5878 -45.5095 -11.4255 -18.1371 64.1559 -1.0829 -16.0328 -31.1257 -0.2280 -3.0736 8.4836 -0.9415 -2.1111 22.6434 -1.1780 -3.2641 -1.6111 0.3258 -1.4732 -14.6547 -7.1518 -3.1045 -12.9161 11.9935 -3.5363 -3.0437 4.6287 -1.5221 1.5567 -0.0000 0.0000 0.0000 -111.4749 -46.2104 81.1122 43.5233 -50.0242 -21.1009 -0.0000 -0.0000 58.6917 -58.2334 35.3979 -43.0899 -7.1250 0.0000 -0.0000 -80.8874 49.3266 -20.8410 -0.0000 0.0000 0.0000 -53.0108 60.9719 -82.2061 -28.2613 39.3557 -10.2890 0.0000 0.0000 9.6272 53.8407 -3.1176 -4.2560 7.1250 -0.0000 -0.0000 44.1647 -14.9425 51.4876
